<?xml version="1.0" encoding="utf-8" ?>
<svg baseProfile="full" height="300mm" version="1.1" viewBox="0,0,200,300" width="200mm" xmlns="http://www.w3.org/2000/svg" xmlns:ev="http://www.w3.org/2001/xml-events" xmlns:xlink="http://www.w3.org/1999/xlink"><defs /><rect fill="#222222" height="300" width="200" x="0" y="0" /><text fill="#FFFFFF" style="font-size:12px; font-family:Arial; font-weight:bold;" x="10" y="20">Over 10km Runs</text><text fill="#FFFFFF" style="font-size:4px; font-family:Arial" x="10" y="280">ATHLETE</text><text fill="#FFFFFF" style="font-size:9px; font-family:Arial" x="10" y="290">JiyoTomare</text><text fill="#FFFFFF" style="font-size:4px; font-family:Arial" x="120" y="280">STATISTICS</text><text fill="#FFFFFF" style="font-size:3px; font-family:Arial" x="120" y="285">Number: 3</text><text fill="#FFFFFF" style="font-size:3px; font-family:Arial" x="120" y="290">Weekly: 1.0</text><text fill="#FFFFFF" style="font-size:3px; font-family:Arial" x="141" y="285">Total: 30.3 km</text><text fill="#FFFFFF" style="font-size:3px; font-family:Arial" x="141" y="290">Avg: 10.1 km</text><text fill="#FFFFFF" style="font-size:3px; font-family:Arial" x="167" y="285">Min: 10.0 km</text><text fill="#FFFFFF" style="font-size:3px; font-family:Arial" x="167" y="290">Max: 10.2 km</text><polyline fill="none" points="31.676459945738316,99.90387506806292 31.290946887806058,98.39456890081055 31.290946887806058,98.39456890081055 31.290946887806058,98.39456890081055 34.3750513587147,99.90387506806292 34.3750513587147,99.90387506806292 34.3750513587147,99.90387506806292 34.3750513587147,99.90387506806292 34.3750513587147,99.90387506806292 34.3750513587147,99.90387506806292 69.0712266433984,105.9410931118764 75.23943558335304,93.36354355490766 74.85392252542078,88.3325108482968 74.08289640769362,78.77352842036635 74.08289640769362,74.24558009649627 72.92635723017156,66.1958794654347 72.5408441722393,62.17102208174765 72.5408441722393,56.13372716889717 67.91468746587634,48.08398412796669 65.21609605662525,45.06532562710345 59.433400174602866,41.04044350259937 59.433400174602866,41.04044350259937 59.433400174602866,41.04044350259937 59.433400174602866,41.04044350259937 39.386721121147275,51.60574902803637 39.386721121147275,55.630618781549856 39.77223417907953,61.16480699903332 39.77223417907953,71.22694456973113 39.77223417907953,75.75489686755463 40.54326029680669,84.30767938029021 40.928773356601596,88.83561445097439 53.26519123651087,107.95349677139893 61.360965467989445,107.95349677139893 74.46840946562588,89.8418214332778 74.08289640769362,85.31388769065961 73.69738334789872,79.77973834751174 73.69738334789872,79.77973834751174 73.69738334789872,79.77973834751174 72.92635723017156,62.674129511928186 72.5408441722393,58.146159985335544 70.22776581905782,47.580874561332166 51.33762594126165,35.50622288743034 37.8446688875556,52.10885800444521 39.00120806135237,60.66169934649952 39.77223417907953,65.18966556247324 40.15774723701179,74.24558009649627 40.54326029680669,78.77352842036635 41.3142864163965,88.3325108482968 41.3142864163965,93.36354355490766 75.6249486412853,92.86044061509892 74.46840946562588,84.30767938029021 74.08289640769362,80.2828432021197 73.69738334789872,75.75489686755463 73.31187028810382,67.20209307479672 72.92635723017156,63.17723686853424 72.5408441722393,58.64926800504327 67.52917440794408,42.04666447569616 50.95211288519204,35.50622288743034 41.3142864163965,42.54977485095151 40.15774723701179,46.574655207805336 39.386721121147275,50.096421654568985 40.15774723701179,74.74868576135486 40.54326029680669,78.27042334526777 40.54326029680669,82.79836636572145 41.3142864163965,92.86044061509892 61.74647852778435,109.46279874141328 72.1553311124444,101.9162822610233 75.6249486412853,89.33871797751635 75.23943558335304,84.81078357249498 74.46840946562588,76.25800230982713 74.46840946562588,72.23315670713782 73.31187028810382,64.18345136195421 72.92635723017156,59.65548382233828 72.92635723017156,55.630618781549856 66.37263523042202,39.531111490679905 40.54326029680669,46.574655207805336 39.00120806135237,54.6244017847348 39.00120806135237,54.6244017847348 40.15774723701179,70.72383838961832 40.15774723701179,74.24558009649627 39.77223417907953,83.80457511614077 40.928773356601596,92.86044061509892 42.085312532261014,97.38836442050524 58.27686099894345,108.95969815854914 74.08289640769362,100.91007881145924 76.39597475714982,88.3325108482968 75.23943558335304,84.30767938029021 74.46840946562588,80.2828432021197 74.08289640769362,71.7300506758038 74.08289640769362,67.70519976923242 73.69738334789872,63.680344152031466 72.92635723017156,55.630618781549856 72.92635723017156,51.60574902803637 63.28853076137602,38.02177881775424 40.928773356601596,43.55599538167007 39.00120806135237,57.13994372356683 39.77223417907953,61.66791457799263 40.15774723701179,65.69277255050838 40.54326029680669,74.24558009649627 40.54326029680669,78.77352842036635 40.928773356601596,82.79836636572145 41.3142864163965,90.84802812174894 42.085312532261014,95.37595457653515 44.78390394337475,102.9224854146596 74.85392252542078,90.34492481546476 74.46840946562588,85.81699173385277 74.46840946562588,81.79215732216835 74.08289640769362,75.75489686755463 74.08289640769362,75.75489686755463 72.92635723017156,64.18345136195421 72.5408441722393,56.63683548406698 72.5408441722393,52.6119669075124 55.96378264576197,35.50622288743034 39.386721121147275,58.64926800504327 39.77223417907953,63.17723686853424 40.15774723701179,67.20209307479672 40.54326029680669,75.75489686755463 40.928773356601596,79.77973834751174 41.3142864163965,84.30767938029021 41.3142864163965,93.36354355490766 57.12032182328403,110.46899968758225 61.360965467989445,109.46279874141328 74.08289640769362,98.39456890081055 76.01046169921756,89.8418214332778 75.23943558335304,85.31388769065961 74.46840946562588,81.28905268851668 74.08289640769362,72.7362626644317 74.08289640769362,68.2083063905593 73.69738334789872,64.18345136195421 72.92635723017156,56.13372716889717 73.31187028810382,51.60574902803637 48.639034532010555,37.51866777893156 39.77223417907953,46.071545420447364 38.23018194548786,55.1275103201624 38.61569500528276,60.15859162225388 39.77223417907953,68.7114129383117 39.77223417907953,72.7362626644317 40.15774723701179,77.26421297458 40.15774723701179,85.31388769065961 40.54326029680669,89.8418214332778 40.928773356601596,93.86664642160758 53.26519123651087,108.95969815854914 73.69738334789872,100.40697697619908 76.01046169921756,87.32630342291668 75.23943558335304,82.79836636572145 74.85392252542078,78.77352842036635 74.08289640769362,70.22073213756084 74.08289640769362,65.69277255050838 74.08289640769362,61.16480699903332 73.69738334789872,53.61818449315615 73.31187028810382,50.096421654568985 67.14366135001183,42.04666447569616 64.05955688096583,39.028000673512 52.10865205898881,37.01555666606873 38.23018194548786,52.10885800444521 38.23018194548786,56.63683548406698 39.00120806135237,65.69277255050838 39.386721121147275,70.22073213756084 39.386721121147275,74.24558009649627 40.54326029680669,82.79836636572145 40.928773356601596,86.82319959974848 41.3142864163965,91.35113135538995 63.674043821170926,106.94729508878663 70.22776581905782,101.9162822610233 76.01046169921756,86.32009570300579 75.23943558335304,82.79836636572145 74.85392252542078,78.77352842036635 74.08289640769362,70.72383838961832 74.08289640769362,66.69898630748503 73.69738334789872,63.17723686853424 73.69738334789872,55.1275103201624 71.76981805637479,47.07776492042467 67.14366135001183,40.53733290522359 52.10865205898881,36.51244547893293 52.10865205898881,36.51244547893293 41.3142864163965,44.562215618789196 39.386721121147275,48.08398412796669 37.459155827760696,57.64305189065635 38.23018194548786,62.17102208174765 39.00120806135237,70.72383838961832 38.61569500528276,75.25179135194048 38.61569500528276,79.77973834751174 39.386721121147275,89.33871797751635 40.15774723701179,93.86664642160758 61.74647852778435,108.95969815854914 74.85392252542078,87.82940717181191 74.08289640769362,83.80457511614077 73.69738334789872,79.77973834751174 73.31187028810382,71.7300506758038 73.31187028810382,67.70519976923242 73.31187028810382,63.680344152031466 72.92635723017156,55.630618781549856 62.903017703443766,38.02177881775424 42.47082559019327,43.0528851528652 38.23018194548786,55.1275103201624 37.459155827760696,59.15237595071085 37.8446688875556,67.20209307479672 38.23018194548786,71.22694456973113 38.23018194548786,75.25179135194048 39.386721121147275,83.30147077701986 39.77223417907953,87.32630342291668 39.77223417907953,91.35113135538995 44.398390885442495,103.42558688228019 59.433400174602866,109.96589925209992 69.45673970133066,105.43799201375805 69.45673970133066,105.43799201375805 69.45673970133066,105.43799201375805 69.84225275926292,99.90387506806292 73.31187028810382,87.82940717181191 73.31187028810382,83.30147077701986 73.31187028810382,78.27042334526777 72.5408441722393,68.7114129383117 72.5408441722393,64.18345136195421 72.92635723017156,55.1275103201624 71.38430499657989,47.07776492042467 50.18108676560223,37.01555666606873 37.073642767965794,54.6244017847348 37.8446688875556,63.680344152031466 38.23018194548786,67.70519976923242 39.00120806135237,71.7300506758038 39.386721121147275,80.78594798175618 39.386721121147275,85.31388769065961 39.386721121147275,89.33871797751635 41.3142864163965,97.89146669674665 61.74647852778435,109.46279874141328 75.6249486412853,94.36974921333604 75.23943558335304,85.31388769065961 74.08289640769362,81.28905268851668 73.69738334789872,77.26421297458 73.31187028810382,69.71762581076473 72.92635723017156,62.674129511928186 72.92635723017156,58.64926800504327 72.92635723017156,54.6244017847348 67.91468746587634,40.53733290522359 64.83058299683034,38.02177881775424 54.03621735237539,36.00933422008529 40.928773356601596,45.568435560911894 39.00120806135237,58.64926800504327 39.00120806135237,63.17723686853424 39.386721121147275,67.70519976923242 39.77223417907953,75.75489686755463 39.77223417907953,79.27663342072628 39.77223417907953,82.79836636572145 40.15774723701179,90.84802812174894 46.71146923676133,106.4441941366531 58.662374056875706,109.96589925209992 62.51750464551151,109.46279874141328 72.5408441722393,102.41938387462869 75.23943558335304,89.8418214332778 74.85392252542078,85.81699173385277 74.08289640769362,81.79215732216835 73.69738334789872,73.23936854838394 73.69738334789872,69.71762581076473 73.69738334789872,66.1958794654347 72.92635723017156,58.64926800504327 72.5408441722393,53.61818449315615 72.5408441722393,53.61818449315615 57.891347939148545,37.01555666606873 47.86800841242075,38.524889782536775 47.86800841242075,38.524889782536775 39.386721121147275,52.6119669075124 39.00120806135237,55.630618781549856 39.00120806135237,63.680344152031466 39.00120806135237,67.70519976923242 39.386721121147275,71.7300506758038 40.15774723701179,80.78594798175618 40.54326029680669,85.81699173385277 41.3142864163965,93.86664642160758 60.20442629233003,109.96589925209992 67.91468746587634,106.94729508878663 74.08289640769362,100.91007881145924 75.6249486412853,92.86044061509892 75.23943558335304,88.83561445097439 74.85392252542078,84.81078357249498 74.08289640769362,76.76110767875798 74.08289640769362,68.7114129383117 73.69738334789872,60.15859162225388 73.69738334789872,55.630618781549856 73.31187028810382,51.60574902803637 54.42173041217029,37.01555666606873 50.566599825397134,38.524889782536775 38.23018194548786,56.13372716889717 38.23018194548786,60.15859162225388 38.61569500528276,64.68655849876814 39.00120806135237,73.23936854838394 39.386721121147275,77.26421297458 39.00120806135237,81.28905268851668 39.00120806135237,89.8418214332778 39.77223417907953,97.38836442050524 54.42173041217029,109.96589925209992 70.61327887885273,104.43178959493525 75.6249486412853,92.86044061509892 74.85392252542078,84.81078357249498 74.46840946562588,81.28905268851668 74.08289640769362,77.26421297458 73.69738334789872,69.21451941132545 73.69738334789872,64.68655849876814 73.31187028810382,60.66169934649952 72.92635723017156,51.60574902803637 67.91468746587634,40.03422223497182 51.72313900105655,37.51866777893156 48.639034532010555,38.524889782536775 39.00120806135237,54.6244017847348 39.386721121147275,61.16480699903332 39.386721121147275,65.18966556247324 40.15774723701179,69.21451941132545 40.15774723701179,77.76731819659472 40.15774723701179,81.28905268851668 40.54326029680669,85.31388769065961 41.3142864163965,93.86664642160758 56.34929570555687,109.96589925209992 75.23943558335304,95.37595457653515 75.23943558335304,86.32009570300579 74.85392252542078,81.79215732216835 74.85392252542078,77.76731819659472 74.46840946562588,69.71762581076473 73.69738334789872,65.69277255050838 73.69738334789872,61.66791457799263 72.92635723017156,53.61818449315615 66.75814829021692,40.03422223497182 49.79557370580733,38.524889782536775 39.386721121147275,60.66169934649952 39.386721121147275,65.18966556247324 39.386721121147275,69.71762581076473 40.15774723701179,77.76731819659472 40.54326029680669,82.29526188084856 40.928773356601596,86.32009570300579 40.928773356601596,94.87285193242133 69.84225275926292,104.93489084229805 75.23943558335304,93.36354355490766 75.23943558335304,88.3325108482968 75.23943558335304,83.80457511614077 74.85392252542078,75.25179135194048 73.69738334789872,66.1958794654347 73.31187028810382,62.17102208174765 73.31187028810382,58.146159985335544 72.92635723017156,49.59331238246523 69.45673970133066,42.54977485095151 50.95211288519204,38.524889782536775 42.085312532261014,44.0591055364348 42.085312532261014,44.0591055364348 42.085312532261014,44.0591055364348 39.00120806135237,63.680344152031466 39.386721121147275,67.20209307479672 39.386721121147275,71.22694456973113 39.77223417907953,80.78594798175618 40.15774723701179,85.31388769065961 40.928773356601596,94.36974921333604 52.10865205898881,109.46279874141328 60.97545240819454,109.96589925209992 74.46840946562588,98.89767102943733 75.6249486412853,89.8418214332778 75.23943558335304,85.81699173385277 74.85392252542078,81.28905268851668 74.46840946562588,73.23936854838394 74.46840946562588,69.21451941132545 74.08289640769362,65.18966556247324 73.31187028810382,56.63683548406698 72.92635723017156,52.10885800444521 65.98712217435241,39.028000673512 39.77223417907953,49.59331238246523 39.386721121147275,58.146159985335544 39.77223417907953,62.674129511928186 40.15774723701179,66.69898630748503 39.77223417907953,75.25179135194048 39.386721121147275,79.77973834751174 39.77223417907953,83.80457511614077 40.15774723701179,92.35733760357834 40.15774723701179,96.382159645902 44.78390394337475,105.9410931118764 51.72313900105655,109.46279874141328 59.433400174602866,109.96589925209992 63.28853076137602,108.95969815854914 74.46840946562588,97.89146669674665 75.6249486412853,88.83561445097439 75.23943558335304,84.30767938029021 74.46840946562588,75.75489686755463 74.08289640769362,71.22694456973113 74.08289640769362,66.69898630748503 73.69738334789872,58.64926800504327 73.69738334789872,54.121293175267056 72.5408441722393,46.071545420447364 67.52917440794408,38.524889782536775 60.58993935212493,35.50622288743034 45.169417003169656,39.531111490679905 40.54326029680669,46.071545420447364 38.61569500528276,58.146159985335544 39.386721121147275,62.674129511928186 39.77223417907953,66.69898630748503 39.77223417907953,69.21451941132545 40.54326029680669,89.33871797751635 40.54326029680669,92.86044061509892 52.10865205898881,109.96589925209992 60.58993935212493,109.96589925209992 67.52917440794408,107.95349677139893 67.52917440794408,107.95349677139893 67.52917440794408,107.95349677139893 75.23943558335304,92.35733760357834 75.23943558335304,88.3325108482968 74.46840946562588,80.2828432021197 74.08289640769362,75.75489686755463 73.69738334789872,71.22694456973113 73.69738334789872,62.674129511928186 73.31187028810382,58.146159985335544 72.92635723017156,54.121293175267056 70.61327887885273,42.04666447569616 52.87967817671597,35.50622288743034 39.386721121147275,52.10885800444521 39.77223417907953,61.66791457799263 39.77223417907953,66.1958794654347 40.54326029680669,75.25179135194048 40.928773356601596,79.27663342072628 41.3142864163965,83.80457511614077 41.3142864163965,91.8542345163878 41.3142864163965,95.87905714730732 52.49416511692107,109.96589925209992 64.44506993703544,109.46279874141328 76.01046169921756,93.36354355490766 75.6249486412853,89.33871797751635 75.23943558335304,84.81078357249498 74.46840946562588,76.76110767875798 74.85392252542078,72.7362626644317 74.08289640769362,68.2083063905593 73.31187028810382,60.66169934649952 72.92635723017156,56.63683548406698 72.92635723017156,52.6119669075124 65.6016091145575,38.524889782536775 41.3142864163965,46.574655207805336 39.77223417907953,54.6244017847348 39.77223417907953,58.64926800504327 40.15774723701179,63.17723686853424 39.386721121147275,71.22694456973113 40.54326029680669,79.27663342072628 40.928773356601596,82.79836636572145 41.3142864163965,86.82319959974848 41.699799474328756,95.87905714730732 64.44506993703544,109.46279874141328 72.92635723017156,100.91007881145924 74.08289640769362,97.38836442050524 75.23943558335304,93.86664642160758 75.23943558335304,93.86664642160758 75.23943558335304,93.86664642160758 74.08289640769362,77.26421297458 74.08289640769362,73.74247436015867 73.69738334789872,69.71762581076473 73.69738334789872,61.16480699903332 73.31187028810382,57.64305189065635 73.31187028810382,53.61818449315615 60.97545240819454,36.51244547893293 53.26519123651087,36.51244547893293 42.856338649988174,42.04666447569616 39.386721121147275,49.59331238246523 39.00120806135237,57.64305189065635 39.386721121147275,61.16480699903332 39.386721121147275,64.68655849876814 39.386721121147275,72.23315670713782 39.386721121147275,75.75489686755463 39.77223417907953,79.77973834751174 40.54326029680669,86.32009570300579 41.3142864163965,90.34492481546476 41.3142864163965,90.34492481546476 41.3142864163965,90.34492481546476 50.18108676560223,107.45039596757852 50.18108676560223,107.45039596757852 66.37263523042202,107.45039596757852 66.37263523042202,107.45039596757852 66.37263523042202,107.45039596757852 74.08289640769362,91.8542345163878 74.08289640769362,88.3325108482968 74.08289640769362,79.77973834751174 74.08289640769362,75.75489686755463 73.69738334789872,71.7300506758038 73.69738334789872,67.70519976923242 73.69738334789872,67.70519976923242 73.31187028810382,60.66169934649952 72.1553311124444,48.58709361986257 59.81891323439777,35.50622288743034 55.96378264576197,34.5 55.96378264576197,34.5 42.856338649988174,43.0528851528652 39.77223417907953,58.146159985335544 39.386721121147275,61.16480699903332 39.386721121147275,64.68655849876814 39.386721121147275,64.68655849876814 39.386721121147275,64.68655849876814 39.386721121147275,64.68655849876814 39.00120806135237,87.32630342291668 39.386721121147275,90.84802812174894 76.01046169921756,87.32630342291668 74.08289640769362,73.23936854838394 74.08289640769362,73.23936854838394 73.31187028810382,59.15237595071085 73.31187028810382,59.15237595071085 65.98712217435241,40.03422223497182 59.04788711667061,37.51866777893156 41.3142864163965,46.574655207805336 41.3142864163965,46.574655207805336 39.00120806135237,78.27042334526777 39.77223417907953,84.81078357249498 57.891347939148545,109.46279874141328 57.891347939148545,109.46279874141328 57.891347939148545,109.46279874141328 57.891347939148545,109.46279874141328 69.45673970133066,114.49380052648485 66.75814829021692,115.5 66.75814829021692,114.99690029979683 69.45673970133066,112.98450076300651 70.22776581905782,112.98450076300651 69.45673970133066,113.48760075890459 69.0712266433984,113.9907006798312 68.68571358546615,113.9907006798312 69.45673970133066,113.48760075890459 71.38430499657989,112.98450076300651 72.92635723017156,112.98450076300651 74.85392252542078,113.48760075890459 74.08289640769362,113.9907006798312 73.69738334789872,113.9907006798312 73.69738334789872,113.9907006798312 74.08289640769362,113.48760075890459 74.46840946562588,112.98450076300651 76.01046169921756,109.46279874141328 77.93802699446678,107.95349677139893 78.32354005239904,106.4441941366531 78.70905311219394,104.93489084229805 78.70905311219394,103.42558688228019 78.70905311219394,101.41318057267927 78.70905311219394,99.40077308495529 78.70905311219394,97.89146669674665" stroke="#4dd2ff" stroke-linecap="round" stroke-linejoin="round" stroke-width="0.5"><title>2018-06-25 10.1km</title></polyline><polyline fill="none" points="141.83808975107968,34.5 137.77277657017112,41.164602228440344 130.09385167434812,68.84824767662212 130.5455531384796,73.46217496879399 130.09385167434812,110.37345326179639 137.77277657017112,113.96203648298979 146.80680585838854,113.96203648298979 156.29253661073744,110.37345326179639 162.1646556481719,104.22159083606675 164.87486443668604,97.04440926387906 164.87486443668604,89.35456142108887 164.42316297069192,85.25330481911078 163.97146150656044,81.15204514330253 163.06805857643485,72.43685812875628 163.06805857643485,68.33558884914964 163.06805857643485,63.721657233312726 162.61635711416602,54.49378233309835 149.06531317904592,37.57597126811743 127.83534435369074,45.7785528623499 126.48023995943367,50.39249960426241 126.02853849343956,63.721657233312726 126.93194142356515,67.82292997231707 127.38364288769662,77.0507823950611 126.93194142356515,81.6647027716972 126.93194142356515,85.76596206286922 126.48023995943367,94.99378422787413 134.15916485525668,110.37345326179639 153.5823278259486,111.91141778696328 162.61635711416602,102.68362414930016 163.06805857643485,93.45581494970247 162.61635711416602,88.84190451493487 162.1646556481719,84.22799018817022 161.2612527217716,75.00014986796305 160.80955125577748,70.3862238721922 160.357849791646,60.13304106565192 153.5823278259486,43.727908614557236 149.06531317904592,41.164602228440344 126.48023995943367,50.90516011370346 126.48023995943367,60.13304106565192 126.93194142356515,65.25963487103581 127.38364288769662,75.00014986796305 127.38364288769662,79.61407197313383 127.83534435369074,88.3292475589551 127.83534435369074,93.45581494970247 138.2244780343026,112.93672723229975 160.80955125577748,101.14565702853724 160.80955125577748,96.5317530776374 160.80955125577748,86.79127640556544 160.357849791646,82.17736035166308 159.90614832751453,73.46217496879399 160.357849791646,68.84824767662212 159.90614832751453,59.107721727807075 159.45444686338305,53.468461939133704 126.02853849343956,55.00644245836884 126.48023995943367,60.13304106565192 127.38364288769662,68.84824767662212 126.93194142356515,73.97483331570402 126.48023995943367,83.71533280191943 126.93194142356515,88.3292475589551 134.61086631938815,109.8607983244583 149.06531317904592,113.44938188185915 163.51976004242897,97.55706540308893 163.06805857643485,92.43050185590982 161.2612527217716,78.07609836943448 160.80955125577748,67.82292997231707 160.80955125577748,63.2089979252778 152.678924895823,40.65194080583751 127.38364288769662,61.67101971246302 127.83534435369074,66.79761207522824 127.83534435369074,77.0507823950611 127.83534435369074,82.69001788273454 127.38364288769662,92.94315842632204 162.1646556481719,97.55706540308893 161.71295418404043,92.94315842632204 161.71295418404043,83.2026753667742 161.2612527217716,78.5887562870048 161.71295418404043,69.36090645706281 161.2612527217716,63.721657233312726 127.83534435369074,53.468461939133704 127.83534435369074,59.107721727807075 127.83534435369074,69.87356518860906 127.83534435369074,74.48749161651358 128.28704581782222,84.74064752738923 128.7387472819537,89.86721827974543 149.9687161091715,113.44938188185915 161.2612527217716,103.70893532177433 163.06805857643485,93.9684714237228 162.61635711416602,89.35456142108887 163.51976004242897,79.61407197313383 163.06805857643485,73.97483331570402 162.61635711416602,63.721657233312726 162.1646556481719,58.595061988104135 158.099342469126,44.75323083484545 125.57683702930808,57.057082476560026 125.57683702930808,62.183679164387286 125.57683702930808,72.94951657345518 126.02853849343956,78.5887562870048 126.93194142356515,92.43050185590982 158.5510439351201,108.32283322047442 163.06805857643485,94.99378422787413 162.61635711416602,89.86721827974543 161.71295418404043,79.61407197313383 161.71295418404043,75.00014986796305 161.71295418404043,65.25963487103581 161.2612527217716,60.645700661465526 161.2612527217716,56.544422544538975 127.38364288769662,52.955801671836525 127.83534435369074,58.082402198109776 127.83534435369074,67.82292997231707 128.28704581782222,72.43685812875628 128.28704581782222,82.69001788273454 127.83534435369074,87.30393350403756 127.83534435369074,97.55706540308893 162.61635711416602,98.0697214929387 162.1646556481719,93.45581494970247 161.71295418404043,85.25330481911078 161.71295418404043,76.53812433592975 161.71295418404043,72.43685812875628 161.71295418404043,61.67101971246302 161.2612527217716,55.51910253474489 153.13062635995448,38.60129463952035 127.38364288769662,50.90516011370346 129.19044874608517,64.74697570642456 129.19044874608517,69.87356518860906 129.642150208354,80.12672974541783 129.19044874608517,84.74064752738923 128.7387472819537,93.9684714237228 145.00000000186265,113.96203648298979 157.19593954086304,108.8354883021675 162.61635711416602,95.50644055986777 162.61635711416602,90.37987509183586 161.71295418404043,80.12672974541783 161.2612527217716,74.48749161651358 160.357849791646,64.23431649431586 160.357849791646,59.107721727807075 130.99725460261106,43.215247435029596 127.83534435369074,58.082402198109776 127.83534435369074,68.33558884914964 127.83534435369074,73.97483331570402 128.28704581782222,85.76596206286922 128.28704581782222,85.76596206286922 128.7387472819537,92.43050185590982 162.61635711416602,95.50644055986777 162.61635711416602,86.79127640556544 162.1646556481719,82.69001788273454 162.1646556481719,78.5887562870048 161.71295418404043,69.36090645706281 160.80955125577748,64.74697570642456 160.357849791646,55.51910253474489 133.25576192513108,40.65194080583751 126.93194142356515,53.98112215986475 126.48023995943367,64.23431649431586 126.93194142356515,68.84824767662212 126.93194142356515,83.71533280191943 127.38364288769662,92.94315842632204 126.93194142356515,97.04440926387906 143.64489560574293,112.93672723229975 163.51976004242897,93.9684714237228 162.61635711416602,88.84190451493487 162.1646556481719,80.12672974541783 161.2612527217716,76.0254662274383 161.71295418404043,71.41154109686613 162.1646556481719,61.15836021117866 162.1646556481719,57.057082476560026 161.71295418404043,52.955801671836525 154.03402928821743,38.08863297710195 137.77277657017112,37.06330950977281 130.99725460261106,41.67726360121742 126.48023995943367,53.98112215986475 126.02853849343956,58.595061988104135 126.02853849343956,67.82292997231707 125.57683702930808,72.43685812875628 126.02853849343956,85.76596206286922 126.02853849343956,89.86721827974543 126.48023995943367,94.48112784978002 152.22722343169153,112.42407253338024 163.06805857643485,102.68362414930016 164.42316297069192,93.45581494970247 163.51976004242897,88.84190451493487 162.61635711416602,78.5887562870048 162.1646556481719,73.46217496879399 161.71295418404043,58.082402198109776 160.80955125577748,48.34185708872974 150.8721190392971,37.06330950977281 128.28704581782222,45.7785528623499 126.48023995943367,58.595061988104135 126.93194142356515,63.2089979252778 126.93194142356515,71.41154109686613 126.48023995943367,75.51280807284638 126.02853849343956,79.61407197313383 126.93194142356515,88.84190451493487 126.93194142356515,93.45581494970247 129.642150208354,102.68362414930016 158.5510439351201,108.8354883021675 164.42316297069192,99.09503353061154 163.51976004242897,94.99378422787413 163.06805857643485,84.74064752738923 162.61635711416602,80.12672974541783 161.71295418404043,70.3862238721922 161.2612527217716,65.25963487103581 161.2612527217716,56.03176256408915 129.642150208354,43.727908614557236 126.48023995943367,58.595061988104135 127.38364288769662,64.23431649431586 126.93194142356515,73.46217496879399 126.93194142356515,87.30393350403756 127.38364288769662,96.01909684343264 134.15916485525668,108.32283322047442 161.2612527217716,108.32283322047442 163.97146150656044,99.09503353061154 163.51976004242897,94.48112784978002 163.06805857643485,90.89253185410053 161.71295418404043,82.69001788273454 161.2612527217716,78.07609836943448 160.80955125577748,73.46217496879399 160.80955125577748,63.721657233312726 131.44895606860518,39.11395625444129 126.48023995943367,46.803874695673585 125.57683702930808,52.443141353782266 125.12513556703925,62.6963385688141 124.67343410104513,67.31027104659006 126.93194142356515,91.91784523567185 127.38364288769662,93.9684714237228 127.83534435369074,98.582377536688 135.06256778351963,110.37345326179639 155.84083514660597,111.91141778696328 163.97146150656044,101.14565702853724 163.97146150656044,92.43050185590982 163.06805857643485,88.3292475589551 162.61635711416602,83.71533280191943 162.1646556481719,73.97483331570402 161.71295418404043,68.33558884914964 161.2612527217716,58.595061988104135 160.80955125577748,49.36717844288796 126.93194142356515,48.34185708872974 126.48023995943367,58.595061988104135 126.93194142356515,63.721657233312726 126.93194142356515,72.43685812875628 126.48023995943367,77.56344040622935 127.83534435369074,93.45581494970247 159.90614832751453,108.32283322047442 163.97146150656044,90.89253185410053 162.61635711416602,86.27861925773323 162.1646556481719,75.51280807284638 162.1646556481719,70.3862238721922 161.71295418404043,61.15836021117866 161.2612527217716,56.544422544538975 125.12513556703925,52.443141353782266 125.57683702930808,57.057082476560026 126.48023995943367,67.31027104659006 127.83534435369074,77.0507823950611 128.28704581782222,81.15204514330253 128.28704581782222,85.76596206286922 128.28704581782222,94.99378422787413 141.38638828508556,113.96203648298979 163.51976004242897,93.9684714237228 163.51976004242897,88.3292475589551 162.61635711416602,78.07609836943448 162.1646556481719,72.43685812875628 162.1646556481719,62.183679164387286 162.1646556481719,57.56974236248061 127.83534435369074,52.955801671836525 128.28704581782222,58.082402198109776 125.57683702930808,79.61407197313383 125.57683702930808,84.22799018817022 126.48023995943367,88.3292475589551 127.83534435369074,97.04440926387906 131.44895606860518,106.27221241267398 138.67617949843407,112.42407253338024 147.25850732438266,115.5 156.74423807486892,112.42407253338024 162.1646556481719,98.0697214929387 162.1646556481719,92.94315842632204 162.61635711416602,83.71533280191943 161.71295418404043,79.61407197313383 160.80955125577748,64.74697570642456 161.2612527217716,60.13304106565192 161.2612527217716,56.544422544538975 160.357849791646,48.8545177904889 156.29253661073744,41.67726360121742 139.12788096256554,37.57597126811743 126.93194142356515,55.51910253474489 126.93194142356515,60.13304106565192 128.28704581782222,75.00014986796305 127.38364288769662,83.71533280191943 127.38364288769662,88.3292475589551 126.93194142356515,92.94315842632204 130.99725460261106,105.24690171889961 140.0312838908285,111.39876299351454 163.51976004242897,100.63300122693181 163.51976004242897,89.86721827974543 163.06805857643485,84.74064752738923 162.61635711416602,74.48749161651358 162.61635711416602,69.36090645706281 162.1646556481719,59.62038142140955 162.1646556481719,55.00644245836884 125.12513556703925,57.56974236248061 125.57683702930808,62.183679164387286 127.38364288769662,71.92419963749126 127.38364288769662,81.15204514330253 127.38364288769662,85.76596206286922 127.38364288769662,95.50644055986777 138.67617949843407,111.91141778696328 158.099342469126,111.39876299351454 163.06805857643485,100.63300122693181 162.61635711416602,94.99378422787413 161.71295418404043,83.2026753667742 161.71295418404043,77.56344040622935 162.1646556481719,66.79761207522824 161.2612527217716,56.544422544538975 160.80955125577748,52.443141353782266 151.77552196756005,38.60129463952035 125.57683702930808,47.31653554132208 126.02853849343956,55.51910253474489 127.38364288769662,63.721657233312726 126.93194142356515,68.33558884914964 126.48023995943367,72.94951657345518 125.57683702930808,81.15204514330253 126.02853849343956,83.71533280191943 127.83534435369074,91.91784523567185 128.7387472819537,97.55706540308893 136.86937364190817,111.39876299351454 159.00274539738894,111.91141778696328 161.2612527217716,109.34814333729446 163.51976004242897,96.01909684343264 162.61635711416602,90.89253185410053 162.61635711416602,81.15204514330253 163.06805857643485,72.43685812875628 162.61635711416602,67.82292997231707 161.71295418404043,58.082402198109776 161.71295418404043,53.468461939133704 161.71295418404043,49.36717844288796 159.90614832751453,45.265891873277724 157.6476410049945,43.727908614557236 132.8040604609996,40.65194080583751 128.7387472819537,60.13304106565192 128.28704581782222,77.56344040622935 126.48023995943367,85.76596206286922 130.09385167434812,104.22159083606675 138.2244780343026,110.37345326179639 143.64489560574293,111.91141778696328 162.1646556481719,105.24690171889961 163.97146150656044,94.99378422787413 162.61635711416602,56.544422544538975 158.099342469126,45.7785528623499 136.86937364190817,38.60129463952035 126.02853849343956,99.6076894775033 131.90065753273666,107.81017809128389 147.25850732438266,114.47469103708863 165.3265659008175,86.79127640556544 164.42316297069192,65.25963487103581 163.06805857643485,60.645700661465526 162.1646556481719,48.34185708872974 155.3891336824745,39.62661781953648 129.642150208354,41.67726360121742 126.02853849343956,80.12672974541783 130.99725460261106,105.24690171889961 134.15916485525668,112.42407253338024" stroke="#4dd2ff" stroke-linecap="round" stroke-linejoin="round" stroke-width="0.5"><title>2019-04-25 10.2km</title></polyline><polyline fill="none" points="63.76553106261417,261.2966780253919 62.46693386789411,261.4023397817509 57.02905811648816,262.2476332773804 54.7565130260773,262.14197164413054 51.753507014364004,258.65512912662234 51.34769539069384,256.5418830898707 50.941883767955005,253.37200250511523 50.698396794032305,252.10404639784247 50.536072144750506,250.413434810529 50.536072144750506,248.9341464434401 44.20541082182899,240.6923418106744 41.689378757961094,238.5790435054805 41.121242485474795,238.4733784289565 40.147294589783996,238.0507179684937 38.44288577185944,237.3110615706537 37.71242485009134,236.8884004339343 35.84569138288498,235.83174651529407 34.95290581183508,235.40908451733412 33.24849699437618,234.4580941227614 30.813627254683524,232.76744145754492 29.109218437224627,231.8164476037491 28.135270541533828,231.499449375493 26.26853707432747,230.65412009129068 23.914829659741372,229.28045790531905 23.184368737973273,228.54079257516423 21.317635270766914,227.27279311342863 20.424849699717015,226.95579290227033 18.558116232976317,226.0047914381139 17.90881763584912,225.4764567532693 16.20440881792456,224.52545335196191 15.31162324687466,224.1027847735677 14.5,224.52545335196191 15.23046092223376,224.84245462424587 16.20440881792456,225.26512277161237 17.827655310742557,225.89912453200668 18.963927856180817,226.74445935117546 19.532064128667116,227.1671263918979 20.181362725794315,227.48412651085528 21.723446893971413,228.32945948536508 22.535070140846074,228.7521256035543 24.07715430902317,229.80878982297145 24.56412825686857,230.02012248209212 25.45691382791847,230.44278761622263 27.16132264584303,231.499449375493 27.972945892252028,231.92211364919785 29.839679358992726,233.1901049928856 31.787575150839984,234.5637597834575 33.81663326686248,235.09208785754163 34.62825651327148,235.30341897939797 35.35871743550524,235.40908451733412 37.06312625296414,235.93741197622148 37.71242485009134,236.36007366661215 39.741482966113836,238.26204822940053 40.309619238600135,240.9036713031237 39.2545090187341,243.54528476810083 38.7675350708887,244.28493481653277 38.03707414865494,245.65856862236978 37.38777555152774,246.39821651828242 36.73847695440054,247.2435274774325 35.92685370799154,249.67379100370454 37.06312625296414,247.66618258779636 37.55010020080954,246.92653598287143 38.28056112257764,245.86989666946465 38.7675350708887,245.23591234354535 39.173346693627536,244.49626326345606 40.796593186911196,241.96031784225488 42.98797595221549,240.16401781095192 44.53006012085825,241.22066542634275 45.26052104262635,241.64332404185552 48.83166332682595,243.54528476810083 49.80561122298241,243.9679420312168 51.672344689723104,244.28493481653277 52.565130260773,244.39059904782334 53.2955911825411,244.39059904782334 55.00000000046566,244.39059904782334 55.89278557151556,244.49626326345606 56.86673346767202,244.91891997284256 56.46092184400186,244.8132558185025 57.75951903825626,245.024584111874 60.437875751871616,244.8132558185025 61.006012024357915,244.91891997284256 62.95390781573951,243.86227773857536 65.38877755543217,241.64332404185552 65.38877755543217,240.58667704160325 65.30761523079127,236.46573905076366 62.710420842282474,233.9297655877308 62.22344689397141,233.9297655877308 61.411823647562414,233.9297655877308 57.67835671361536,233.6127682820661 57.19138276576996,233.08443913195515 56.70440881792456,232.13344569329638 56.54208416864276,232.13344569329638 56.70440881792456,232.45044364448404 56.94789579184726,232.13344569329638 56.78557114256546,231.92211364919785 56.78557114256546,232.13344569329638 56.94789579184726,231.499449375493 56.94789579184726,230.97111868817592 56.78557114256546,230.23145507997833 56.62324649328366,229.3861243193387 56.54208416864276,228.32945948536508 56.29859719472006,226.53312573884614 56.13627254543826,225.89912453200668 55.9739478956908,224.94812168407952 55.7304609217681,223.25744687922997 55.48697394831106,220.29875650041504 55.40581162367016,219.7704176643747 55.32464929902926,219.03074264817405 55.48697394831106,217.44572221901035 57.11022044112906,216.17770338477567 58.00300601217896,216.17770338477567 58.73346693441272,216.17770338477567 60.437875751871616,215.96636669739382 61.249498998746276,215.86069833062356 63.27855711476877,215.86069833062356 67.2555110217072,215.4380247090594 68.95991983963177,215.12101933185477 70.58316633291543,214.80401381629054 71.39478957932442,214.80401381629054 72.36873747501522,215.0153508420335 73.58617234509438,215.0153508420335 74.31663326686248,215.12101933185477 76.10220440896228,215.12101933185477 77.15731462975964,215.12101933185477 79.42985971970484,215.3323562653968 80.24148296611384,215.3323562653968 81.86472945893183,215.22668780648382 85.19238476967439,215.12101933185477 86.16633266536519,215.12101933185477 88.27655310602859,215.22668780648382 91.9288577158004,213.64165907463757 92.57815631246194,213.74732776451856 93.3086172346957,213.74732776451856 94.5260521043092,213.74732776451856 94.688376753591,212.26796470861882 93.9579158318229,211.10560590785462 93.5521042086184,210.4715912322281 92.7404809622094,209.09789087006357 92.33466933853924,208.67521331255557 91.9288577158004,208.04119651508518 91.11723446892574,207.19583992438857 89.41282565146685,205.92780319275334 87.62725450890139,204.34275416488526 87.14028056152165,203.70873358496465 86.49098196392879,203.18038267898373 85.03006012039259,202.12367971334606 83.1633266536519,200.01026916946284 81.7835671347566,198.63654901785776 81.05310621252283,198.31953630619682 78.61823647329584,197.26282626739703 78.05010020080954,196.73447067145025 76.83266533073038,195.36074432282476 73.82965931855142,193.8813438100624 73.09919839724898,193.8813438100624 72.12525050109252,193.8813438100624 70.25851703435183,193.8813438100624 69.69038076186553,193.77567222970538 69.20340681355447,193.67000063392334 67.66132264584303,193.56432902259985 66.60621242504567,193.67000063392334 65.71342685399577,193.67000063392334 63.60320641286671,193.67000063392334 62.061122244689614,193.8813438100624 61.249498998746276,194.09268692525802 60.275551102124155,194.40970148216002 58.40881763584912,194.9380587695632 57.35370741505176,194.7267159006442 56.86673346767202,194.62104444327997 56.05511022079736,194.62104444327997 55.56813627295196,195.25507295742864 53.53907815692946,198.1081944212783 53.376753507182,198.84789074858418 53.0521042086184,200.22161050071009 53.214428858365864,200.96130467532203 53.214428858365864,201.91233893594472 53.2955911825411,203.18038267898373 51.834669339004904,204.97677419119282 50.292585170827806,205.82213336537825 49.39979959977791,206.2448125833762 48.66933867754415,206.66749155544676 46.80260521080345,207.19583992438857 45.90981963975355,207.40717916440917 44.04308617254719,207.51284876151476 43.06913827685639,207.61851834290428 41.202404809650034,207.93552699516295 40.471943887881935,207.93552699516295 39.741482966113836,208.04119651508518 37.95591182401404,208.04119651508518 36.17034068191424,208.25253550941125 35.35871743550524,208.25253550941125 33.57314629293978,208.25253550941125 32.76152304653078,208.3582049831748 31.706412825733423,208.3582049831748 29.839679358992726,208.56954388483427 29.028056112583727,208.67521331255557 27.24248497048393,208.78088272514287 26.836673346813768,208.78088272514287 26.10621242504567,208.88655212213052 25.29458917863667,208.99222150386777 23.103206413332373,209.41489887650823 22.859719438944012,209.41489887650823 23.265531062614173,210.0489144747262 24.48296593222767,210.9999368340359 28.135270541533828,209.3092295564711 28.703406814020127,209.09789087006357 29.515030060894787,209.09789087006357 30.732464930508286,208.78088272514287 31.462925851810724,208.88655212213052 31.706412825733423,208.88655212213052 31.706412825733423,208.88655212213052 35.19639278575778,209.20356022089254 35.84569138288498,209.20356022089254 37.46893787570298,208.99222150386777 38.28056112257764,208.88655212213052 38.92985971970484,208.78088272514287 40.309619238600135,208.56954388483427 41.770541082601994,208.46387444162974 42.58216432901099,208.46387444162974 43.23146292613819,208.46387444162974 44.85470941942185,208.46387444162974 45.66633266583085,208.25253550941125 46.39679358759895,208.04119651508518 47.77655310649425,207.72418790869415 48.42585170362145,207.61851834290428 50.049098196905106,207.0901702811825 50.941883767955005,206.56182183534838 51.753507014364004,206.13914280204335 53.1332665332593,205.61079366406193 54.5130260521546,204.97677419119282 55.7304609217681,204.0257439443376 56.21743487007916,203.60306343459524 56.78557114256546,203.07471245143097 57.75951903825626,202.0180093322997 58.16533066192642,201.48965719615808 58.65230460930616,200.96130467532203 59.13927855761722,200.43295177060645 60.113226452842355,199.48191557254177 60.600200401153415,199.05923241836717 61.168336673639715,198.63654901785776 61.655310621485114,198.21386537136277 61.73647294566035,197.47416839795187 60.113226452842355,198.53087812912418 59.463927855715156,198.95356159139192 58.40881763584912,200.01026916946284 57.75951903825626,201.48965719615808 57.43486973969266,202.12367971334606 56.54208416864276,203.39172308740672 54.91883767582476,205.92780319275334 55.40581162367016,207.61851834290428 56.13627254543826,207.61851834290428 57.02905811648816,207.61851834290428 58.48997996002436,207.40717916440917 59.382765531074256,207.30150955193676 60.275551102124155,207.30150955193676 62.87274549109861,207.19583992438857 63.35971943940967,206.98450062290067 64.00901803653687,206.66749155544676 67.09318637289107,208.67521331255557 67.2555110217072,209.52056818146957 67.41783567145467,210.4715912322281 67.49899799609557,212.26796470861882 67.41783567145467,213.11331539531238 66.76853707479313,213.8529964387999 66.36272545112297,213.9586650976562 65.63226452935487,214.17000236955937 64.25250501045957,214.38133957993705 63.60320641286671,214.48700816230848 62.710420842282474,214.59267672878923 61.006012024357915,214.69834528001957 59.950901803560555,214.59267672878923 58.00300601217896,214.69834528001957 56.37975951982662,213.21898416179465 56.13627254543826,212.47930247260956 55.9739478956908,211.84528899629368 55.81162324687466,210.89426774450112 55.7304609217681,210.0489144747262 55.56813627295196,209.41489887650823 55.48697394831106,208.56954388483427 55.16232464974746,207.19583992438857 55.16232464974746,205.50512379046995 55.16232464974746,204.55409423529636 54.8376753507182,202.44069076463347 54.67535070190206,201.59532765398035 54.1072144289501,200.22161050071009 53.2955911825411,198.31953630619682 53.0521042086184,196.62879950599745 54.1072144289501,194.5153729703161 58.00300601217896,194.62104444327997 58.65230460930616,194.62104444327997 59.30160320689902,194.40970148216002 59.950901803560555,194.3040299784043 63.19739478966221,194.3040299784043 65.30761523079127,194.09268692525802 66.36272545112297,193.98701537569286 68.87875751545653,193.8813438100624 69.69038076186553,193.98701537569286 70.74549098173156,193.98701537569286 72.61222444893792,193.98701537569286 73.34268537070602,193.8813438100624 76.83266533073038,195.994772191043 77.64428857713938,196.62879950599745 77.72545090178028,197.26282626739703 77.80661322688684,198.21386537136277 77.96893787616864,198.95356159139192 77.96893787616864,200.22161050071009 78.05010020080954,200.96130467532203 78.29358717473224,202.22935007925844 78.45591182354838,202.863371950516 77.64428857713938,204.23708410654217 76.99498998001218,204.4484242076869 76.50801603263244,204.65976424713153 76.18336673360318,204.76543424400734 76.02104208478704,205.2937839969527 77.80661322688684,205.61079366406193 79.51102204434574,205.92780319275334 79.59218436898664,207.30150955193676 79.83567134290934,208.25253550941125 79.99799599219114,209.20356022089254 80.24148296611384,210.9999368340359 80.24148296611384,211.6339510480757 80.24148296611384,212.26796470861882 78.78056112257764,213.8529964387999 77.48196392832324,214.17000236955937 76.26452905824408,214.27567098260624 75.61523046065122,214.27567098260624 74.64128256542608,214.17000236955937 74.23547094175592,214.0643337413785 73.09919839724898,213.74732776451856 72.44989979965612,213.64165907463757 72.12525050109252,213.5359903696808 70.42084168363363,213.8529964387999 69.44689378794283,214.17000236955937 66.60621242504567,214.17000236955937 65.79458917817101,214.17000236955937 65.22645290615037,214.17000236955937 63.60320641286671,214.48700816230848 62.54809619253501,214.69834528001957 60.519038076512516,215.0153508420335 58.08416833681986,215.22668780648382 56.29859719472006,214.27567098260624 55.81162324687466,212.6906401750166 55.7304609217681,212.26796470861882 55.7304609217681,211.52828205074184 55.64929859759286,210.89426774450112 55.40581162367016,209.41489887650823 55.32464929902926,207.8298574599321 55.16232464974746,207.0901702811825 55.2434869739227,205.50512379046995 55.7304609217681,204.4484242076869 56.21743487007916,204.0257439443376 56.78557114256546,203.60306343459524 57.35370741505176,203.18038267898373 58.24649298610166,201.70099809684325 58.89579158369452,200.8556341251824 59.382765531074256,200.53862238227157 60.356713427230716,199.48191557254177 61.006012024357915,198.84789074858418 61.168336673639715,197.89685247500893 60.032064128667116,198.7422198909917 59.220440881792456,199.9045984809054 58.814629258587956,200.43295177060645 58.32765531074256,200.8556341251824 57.92184368753806,201.2783162339474 56.70440881792456,202.22935007925844 56.13627254543826,202.75770167715382 55.2434869739227,203.49739326862618 54.91883767582476,202.652031388483 54.8376753507182,202.0180093322997 54.5941883767955,201.2783162339474 53.9448897796683,199.58758632279932 53.6202404811047,198.53087812912418 53.376753507182,196.62879950599745 53.1332665332593,195.04373018082697 52.9709418839775,194.40970148216002 52.7274549100548,193.8813438100624 52.4839679361321,193.2473140967195 52.078156312927604,191.4508935684571 51.996993988286704,190.7111897059949 52.078156312927604,190.0771572246449 51.753507014364004,188.0693840473541 50.698396794032305,187.85803917935118 46.72144288569689,188.70341828203527 45.74749499047175,188.5977459481801 44.93587174359709,188.5977459481801 41.85170340677723,188.0693840473541 40.390781563241035,188.0693840473541 39.741482966113836,188.0693840473541 39.173346693627536,188.0693840473541 38.68637274578214,188.0693840473541 37.22545090224594,187.96371162118157 34.70941883791238,188.1750564581016 33.89779559196904,188.1750564581016 33.08617234509438,188.1750564581016 31.625250501558185,188.1750564581016 30.894789579790086,188.28072885377333 30.002004008274525,188.1750564581016 29.190380761865526,188.0693840473541 27.810621242970228,188.1750564581016 26.998997996095568,188.38640123407822 25.53807615302503,188.28072885377333 25.05110220471397,188.38640123407822 24.32064128294587,188.28072885377333 23.184368737973273,188.70341828203527 25.05110220471397,188.80909060052363 26.998997996095568,190.3941735344706 26.836673346813768,192.93029903189745 26.67434869799763,194.40970148216002 26.67434869799763,195.36074432282476 26.75551102263853,195.994772191043 26.836673346813768,197.26282626739703 26.91783567192033,198.21386537136277 26.836673346813768,198.7422198909917 26.75551102263853,199.79892777703935 27.080160320736468,201.2783162339474 27.080160320736468,202.863371950516 27.080160320736468,203.60306343459524 26.998997996095568,204.34275416488526 27.080160320736468,205.61079366406193 27.080160320736468,206.350482349284 27.32364729512483,207.93552699516295 29.677354709710926,208.67521331255557 30.326653306838125,208.56954388483427 32.68036072188988,208.78088272514287 34.22244489006698,208.78088272514287 34.79058116301894,208.88655212213052 36.25150300655514,208.78088272514287 37.06312625296414,208.67521331255557 37.71242485009134,208.56954388483427 38.92985971970484,208.25253550941125 40.309619238600135,208.14686601993162 40.958917835727334,208.14686601993162 41.689378757961094,208.25253550941125 43.23146292613819,208.3582049831748 43.96192384790629,208.46387444162974 45.26052104262635,208.3582049831748 46.07214428903535,208.14686601993162 46.88376753544435,207.8298574599321 48.10120240505785,207.40717916440917 48.91282565193251,207.19583992438857 49.64328657370061,207.0901702811825 50.779559118673205,206.66749155544676 51.428857715800405,206.350482349284 52.159318637568504,206.0334730053437 52.565130260773,205.82213336537825 54.1072144289501,204.87110422522528 54.43186372797936,204.23708410654217 55.00000000046566,203.81440372008365 55.32464929902926,203.28605289105326 56.54208416864276,202.33502042951295 57.19138276576996,201.70099809684325 57.75951903825626,201.17264573008288 58.814629258587956,200.22161050071009 59.30160320689902,199.79892777703935 59.78857715474442,199.2705740260426 60.843687374610454,198.53087812912418 61.168336673639715,197.7911814788822 60.032064128667116,198.42520722537301 59.30160320689902,198.84789074858418 58.08416833681986,199.9045984809054 57.59719438897446,200.43295177060645 57.59719438897446,200.43295177060645 56.54208416864276,202.22935007925844 56.05511022079736,203.60306343459524 55.64929859759286,204.23708410654217 55.40581162367016,205.82213336537825 55.48697394831106,206.56182183534838 55.56813627295196,207.19583992438857 55.7304609217681,207.72418790869415 55.7304609217681,208.99222150386777 55.64929859759286,209.62623747100588 55.56813627295196,210.3659220659756 55.64929859759286,211.95095794758527 55.7304609217681,212.7963090032572 55.7304609217681,213.5359903696808 57.75951903825626,215.75502994819544 58.32765531074256,215.64936155080795 59.058116232510656,215.64936155080795 59.62625250546262,215.5436931377044 61.979959920048714,215.12101933185477 62.87274549109861,215.12101933185477 65.06412825686857,215.22668780648382 65.63226452935487,215.12101933185477 66.20040080184117,215.0153508420335 66.84969939896837,215.0153508420335 67.82364729465917,214.80401381629054 68.47294589178637,214.48700816230848 68.87875751545653,214.48700816230848 69.52805611258373,214.48700816230848 71.07014028076082,214.27567098260624 72.12525050109252,214.17000236955937 75.12825651327148,213.74732776451856 77.48196392832324,213.74732776451856 79.51102204434574,213.64165907463757 80.40380761539564,213.74732776451856 82.10821643285453,213.8529964387999 82.9198396797292,213.9586650976562 85.19238476967439,214.38133957993705 85.76052104216069,214.48700816230848 87.30260521080345,214.38133957993705 88.43887775577605,214.59267672878923 90.7114228461869,214.59267672878923 91.44188376748934,214.59267672878923 92.25350701389834,214.59267672878923 94.688376753591,212.7963090032572 94.6072144289501,212.16229580383515 94.6072144289501,211.84528899629368 94.2014028057456,210.89426774450112 93.5521042086184,210.15458368713735 93.22745490958914,210.0489144747262 90.79258517036214,206.56182183534838 90.38677354669198,206.2448125833762 89.08817635290325,205.08244414185174 87.62725450890139,204.1314140331233 87.22144288569689,203.81440372008365 86.57214428856969,203.49739326862618 85.51703406823799,202.75770167715382 84.94889779575169,201.91233893594472 83.89378757541999,200.74996355967596 83.24448897782713,200.32728114334168 82.51402805605903,199.79892777703935 81.29659318644553,198.63654901785776 79.99799599219114,197.89685247500893 78.69939879793674,197.05148407502566 78.21242484962568,196.62879950599745 77.80661322688684,196.10044344881317 76.67034068144858,195.04373018082697 76.18336673360318,194.5153729703161 74.56012024078518,193.67000063392334 73.66733466973528,193.67000063392334 72.93687374750152,193.56432902259985 71.39478957932442,193.56432902259985 70.98897795611992,193.56432902259985 70.58316633291543,193.56432902259985 69.85270541068166,193.56432902259985 67.74248497001827,193.45865739614237 65.38877755543217,193.35298575414345 64.65831663366407,193.35298575414345 64.00901803653687,193.35298575414345 63.35971943940967,193.56432902259985 62.30460921861231,193.77567222970538 61.655310621485114,193.77567222970538 60.032064128667116,193.67000063392334 59.463927855715156,193.67000063392334 58.814629258587956,193.67000063392334 57.35370741505176,193.8813438100624 57.02905811648816,193.98701537569286 56.46092184400186,194.09268692525802 55.64929859759286,194.09268692525802 55.00000000046566,193.8813438100624 54.26953907869756,193.45865739614237 52.8086172346957,191.87358115118695 52.565130260773,190.92253374360735 51.428857715800405,187.75236672256142 50.211422845721245,187.75236672256142 49.724448897875845,187.75236672256142 47.20841683400795,187.85803917935118 45.42284569190815,187.96371162118157 44.44889779575169,187.96371162118157 43.63727454980835,187.96371162118157 42.257515030447394,187.96371162118157 41.445891784038395,188.0693840473541 40.715430862270296,188.0693840473541 38.92985971970484,188.1750564581016 38.11823647329584,188.1750564581016 37.22545090224594,188.28072885377333 35.92685370799154,188.28072885377333 35.19639278575778,188.38640123407822 34.38476953981444,188.5977459481801 33.24849699437618,188.5977459481801 32.76152304653078,188.49207359866705 32.031062124762684,188.28072885377333 30.245490982197225,188.1750564581016 29.190380761865526,188.28072885377333 28.784569138661027,188.28072885377333 27.972945892252028,188.28072885377333 27.32364729512483,188.38640123407822 25.53807615302503,188.28072885377333 25.86272545112297,188.49207359866705 26.51202404871583,188.5977459481801 26.91783567192033,189.8658129409887 26.75551102263853,190.49984560732264 26.51202404871583,191.97925300861243 26.51202404871583,192.7189555791556 26.51202404871583,193.56432902259985 26.59318637289107,195.04373018082697 26.75551102263853,195.88910091819707 26.75551102263853,196.52312832546886 26.75551102263853,197.05148407502566 26.67434869799763,198.53087812912418 26.67434869799763,199.2705740260426 26.836673346813768,199.79892777703935 26.91783567192033,200.43295177060645 27.080160320736468,201.70099809684325 27.080160320736468,202.12367971334606 27.24248497048393,202.75770167715382 27.32364729512483,203.49739326862618 27.40480961976573,204.97677419119282 27.48597194440663,205.61079366406193 27.48597194440663,206.350482349284 27.729458917863667,207.8298574599321 27.64829659368843,208.56954388483427 29.677354709710926,209.62623747100588 30.407815631944686,209.41489887650823 31.057114229071885,209.3092295564711 31.787575150839984,209.3092295564711 33.00501002045348,209.09789087006357 33.49198396829888,208.88655212213052 34.14128256542608,208.88655212213052 38.19939879793674,209.09789087006357 38.7675350708887,208.99222150386777 39.416833667550236,208.88655212213052 41.202404809650034,208.3582049831748 41.770541082601994,208.14686601993162 43.39378757588565,207.93552699516295 44.12424849765375,207.93552699516295 45.01703406823799,207.93552699516295 46.23446893831715,207.61851834290428 46.80260521080345,207.51284876151476 47.53306613257155,207.40717916440917 48.02004008088261,207.40717916440917 49.318637274671346,207.30150955193676 50.698396794032305,206.878830949252 51.428857715800405,206.56182183534838 52.159318637568504,206.2448125833762 53.376753507182,205.71646352228709 54.02605210477486,205.39945390145294 55.16232464974746,204.55409423529636 55.56813627295196,204.0257439443376 55.89278557151556,203.60306343459524 56.29859719472006,203.07471245143097 57.27254509087652,202.0180093322997 57.67835671361536,201.48965719615808 58.16533066192642,200.8556341251824 59.382765531074256,199.79892777703935 59.950901803560555,199.2705740260426 60.600200401153415,198.84789074858418 61.411823647562414,197.57983944070293 58.976953907869756,198.95356159139192 58.16533066192642,199.48191557254177 56.86673346767202,200.43295177060645 56.29859719472006,201.70099809684325 55.9739478956908,202.54636108432896 55.32464929902926,204.0257439443376 55.00000000046566,205.50512379046995 55.16232464974746,206.2448125833762 55.2434869739227,206.878830949252 55.64929859759286,208.46387444162974 55.81162324687466,209.94324524665717 55.9739478956908,212.37363359844312 56.13627254543826,213.21898416179465 56.05511022079736,213.8529964387999 57.75951903825626,216.07203504879726 59.30160320689902,216.07203504879726 60.032064128667116,215.86069833062356 61.655310621485114,215.64936155080795 62.95390781573951,215.75502994819544 64.25250501045957,215.5436931377044 64.90180360758677,215.5436931377044 66.20040080184117,215.22668780648382 67.41783567145467,215.12101933185477 71.55711422860622,215.12101933185477 72.36873747501522,215.0153508420335 73.74849699437618,214.69834528001957 76.50801603263244,214.69834528001957 77.48196392832324,214.59267672878923 79.18637274578214,214.48700816230848 79.99799599219114,214.48700816230848 82.10821643285453,214.27567098260624 83.08216432854533,214.17000236955937 83.81262525077909,214.27567098260624 85.11122244503349,214.17000236955937 85.92284569144249,214.27567098260624 88.68236472969875,214.90968233672902 90.38677354669198,214.80401381629054 92.25350701389834,214.90968233672902 93.22745490958914,215.0153508420335 95.5,213.32465291308472 95.0130260521546,212.47930247260956 92.09118236461654,208.3582049831748 91.03607214428484,207.51284876151476 90.63026052108034,207.51284876151476 90.14328657323495,207.30150955193676 87.05911823641509,204.23708410654217 85.35470941895619,202.75770167715382 84.94889779575169,202.44069076463347 84.54308617254719,201.91233893594472 83.24448897782713,200.1159398428863 82.83867735462263,199.58758632279932 82.3517034072429,198.95356159139192 81.21543086180463,198.00252345582703 79.83567134290934,197.47416839795187 78.61823647329584,196.94581295596436 76.91382765583694,195.6777583261137 76.42685370752588,194.9380587695632 74.31663326686248,193.8813438100624 73.42384769581258,193.77567222970538 72.53106212476268,193.56432902259985 70.50200400827453,193.14164242369588 68.71643286570907,193.35298575414345 67.82364729465917,193.56432902259985 67.09318637289107,193.77567222970538 66.11923847720027,195.7834296299261 66.28156312648207,196.62879950599745 66.60621242504567,200.01026916946284 66.93086172360927,201.59532765398035 67.09318637289107,203.07471245143097 67.17434869753197,203.70873358496465 67.17434869753197,204.4484242076869 64.41482965974137,206.13914280204335" stroke="#4dd2ff" stroke-linecap="round" stroke-linejoin="round" stroke-width="0.5"><title>2020-04-01 10.0km</title></polyline></svg>